<svg version="1.1" xmlns="http://www.w3.org/2000/svg" xmlns:xlink="http://www.w3.org/1999/xlink" width="13" height="20"><defs/><g><path fill="rgb(71,71,71)" stroke="none" paint-order="stroke fill markers" fill-rule="evenodd" d=" M 10.7134370803833 3.690948486328125 C 10.7134370803833 3.690948486328125 3.691213607788086 10.713863372802734 3.691213607788086 10.713863372802734 C 3.3032195568084717 11.101665496826172 2.674466848373413 11.101665496826172 2.286637306213379 10.713863372802734 C 1.8988077640533447 10.325736999511719 1.8988077640533447 9.696369171142578 2.286637306213379 9.308891296386719 C 2.286637306213379 9.308891296386719 9.309025287628174 2.2866249084472656 9.309025287628174 2.2866249084472656 C 9.696854829788208 1.8988227844238281 10.325607538223267 1.8988227844238281 10.7134370803833 2.2866249084472656 C 11.101266622543335 2.674427032470703 11.101266622543335 3.3037948608398438 10.7134370803833 3.690948486328125 Z M 10.7134370803833 16.30910873413086 C 10.7134370803833 16.30910873413086 3.691213607788086 9.286842346191406 3.691213607788086 9.286842346191406 C 3.3032195568084717 8.899040222167969 2.674466848373413 8.899040222167969 2.286637306213379 9.286842346191406 C 1.8988077640533447 9.674644470214844 1.8988077640533447 10.30303955078125 2.286637306213379 10.691165924072266 C 2.286637306213379 10.691165924072266 9.309025287628174 17.71310806274414 9.309025287628174 17.71310806274414 C 9.696854829788208 18.101234436035156 10.325607538223267 18.101234436035156 10.7134370803833 17.71310806274414 C 11.101266622543335 17.32595443725586 11.101266622543335 16.69658660888672 10.7134370803833 16.30910873413086 Z"/></g></svg>