<svg version="1.1" xmlns="http://www.w3.org/2000/svg" xmlns:xlink="http://www.w3.org/1999/xlink" width="13" height="20"><defs/><g><path fill="rgb(71,71,71)" stroke="none" paint-order="stroke fill markers" fill-rule="evenodd" d=" M 2.286710262298584 3.690948486328125 C 2.286710262298584 3.690948486328125 9.308933734893799 10.713863372802734 9.308933734893799 10.713863372802734 C 9.696763277053833 11.101665496826172 10.325515985488892 11.101665496826172 10.713345527648926 10.713863372802734 C 11.10117506980896 10.325736999511719 11.10117506980896 9.696369171142578 10.713345527648926 9.308891296386719 C 10.713345527648926 9.308891296386719 3.691122055053711 2.2866249084472656 3.691122055053711 2.2866249084472656 C 3.3032925128936768 1.8988227844238281 2.674457550048828 1.8988227844238281 2.286710262298584 2.2866249084472656 C 1.8987162113189697 2.674427032470703 1.8987162113189697 3.3037948608398438 2.286710262298584 3.690948486328125 Z M 2.286710262298584 16.30910873413086 C 2.286710262298584 16.30910873413086 9.308933734893799 9.286842346191406 9.308933734893799 9.286842346191406 C 9.696763277053833 8.899040222167969 10.325515985488892 8.899040222167969 10.713345527648926 9.286842346191406 C 11.10117506980896 9.674644470214844 11.10117506980896 10.30303955078125 10.713345527648926 10.691165924072266 C 10.713345527648926 10.691165924072266 3.691122055053711 17.71310806274414 3.691122055053711 17.71310806274414 C 3.3032925128936768 18.101234436035156 2.674457550048828 18.101234436035156 2.286710262298584 17.71310806274414 C 1.8987162113189697 17.32595443725586 1.8987162113189697 16.69658660888672 2.286710262298584 16.30910873413086 Z"/></g></svg>