<svg version="1.1" xmlns="http://www.w3.org/2000/svg" xmlns:xlink="http://www.w3.org/1999/xlink" width="68" height="14"><defs/><g><path fill="rgb(132,142,151)" stroke="none" paint-order="stroke fill markers" fill-rule="evenodd" d=" M 7.999962091445923 1.0001335144042969 C 11.313745498657227 1.0001335144042969 14.000010013580322 3.6862144470214844 14.000010013580322 7.000041961669922 C 14.000010013580322 10.31386947631836 11.313745498657227 12.999950408935547 7.999962091445923 12.999950408935547 C 4.686260938644409 12.999950408935547 1.9999964237213135 10.31386947631836 1.9999964237213135 7.000041961669922 C 1.9999964237213135 3.6862144470214844 4.686260938644409 1.0001335144042969 7.999962091445923 1.0001335144042969 Z M 34.00000524520874 1.0001335144042969 C 37.313706398010254 1.0001335144042969 39.99997091293335 3.6862144470214844 39.99997091293335 7.000041961669922 C 39.99997091293335 10.31386947631836 37.313706398010254 12.999950408935547 34.00000524520874 12.999950408935547 C 30.686304092407227 12.999950408935547 28.00003957748413 10.31386947631836 28.00003957748413 7.000041961669922 C 28.00003957748413 3.6862144470214844 30.686304092407227 1.0001335144042969 34.00000524520874 1.0001335144042969 Z M 59.99996614456177 1.0001335144042969 C 63.31366729736328 1.0001335144042969 66.00001406669617 3.6862144470214844 66.00001406669617 7.000041961669922 C 66.00001406669617 10.31386947631836 63.31366729736328 12.999950408935547 59.99996614456177 12.999950408935547 C 56.686264991760254 12.999950408935547 54.00000047683716 10.31386947631836 54.00000047683716 7.000041961669922 C 54.00000047683716 3.6862144470214844 56.686264991760254 1.0001335144042969 59.99996614456177 1.0001335144042969 Z"/></g></svg>