<svg version="1.1" xmlns="http://www.w3.org/2000/svg" xmlns:xlink="http://www.w3.org/1999/xlink" width="47" height="44"><defs/><g><path fill="rgb(141,129,172)" stroke="none" paint-order="stroke fill markers" fill-rule="evenodd" d=" M 45.00298452377319 22.979751586914062 C 45.01441788673401 22.563739776611328 44.87540793418884 22.213550567626953 44.61096000671387 21.948963165283203 C 44.61096000671387 21.948963165283203 40.859829902648926 18.161407470703125 40.859829902648926 18.161407470703125 C 40.859829902648926 18.161407470703125 40.898736238479614 9.472824096679688 40.898736238479614 9.472824096679688 C 40.876774311065674 9.407001495361328 40.856128454208374 9.324642181396484 40.84749174118042 9.228988647460938 C 40.8451886177063 9.203697204589844 40.839677572250366 9.175811767578125 40.834166526794434 9.147926330566406 C 40.815001249313354 9.101234436035156 40.79945516586304 9.055839538574219 40.78662347793579 9.010120391845703 C 40.773298263549805 8.95888900756836 40.75964403152466 8.908954620361328 40.74311089515686 8.861289978027344 C 40.72756481170654 8.833080291748047 40.713417053222656 8.804222106933594 40.70058536529541 8.77536392211914 C 40.67632031440735 8.722511291503906 40.65073919296265 8.672252655029297 40.624171018600464 8.627506256103516 C 40.624171018600464 8.627506256103516 40.583043813705444 8.56784439086914 40.583043813705444 8.56784439086914 C 40.54734539985657 8.516937255859375 40.50704073905945 8.466354370117188 40.46542000770569 8.422256469726562 C 40.44214200973511 8.403450012207031 40.42018008232117 8.3846435546875 40.39912295341492 8.365188598632812 C 40.34919452667236 8.318496704101562 40.29893708229065 8.270183563232422 40.24078321456909 8.231922149658203 C 40.20878624916077 8.210845947265625 40.17580223083496 8.196578979492188 40.144298791885376 8.181015014648438 C 40.144298791885376 8.181015014648438 40.0879545211792 8.15280532836914 40.0879545211792 8.15280532836914 C 40.058671951293945 8.137565612792969 40.02165746688843 8.116813659667969 39.9855477809906 8.096061706542969 C 39.86150813102722 8.043209075927734 39.70736336708069 8.00948715209961 39.54672050476074 8.003002166748047 C 39.54672050476074 8.003002166748047 39.47400760650635 8.003974914550781 39.47400760650635 8.003974914550781 C 39.47400760650635 8.003974914550781 36.34644818305969 8.002029418945312 36.34644818305969 8.002029418945312 C 35.99053335189819 8.002029418945312 35.655182123184204 8.140159606933594 35.403565883636475 8.391128540039062 C 35.152360916137695 8.641124725341797 35.01417350769043 8.973804473876953 35.01466703414917 9.328208923339844 C 35.01466703414917 10.06036376953125 35.613972663879395 10.65536117553711 36.351054430007935 10.65536117553711 C 36.351054430007935 10.65536117553711 38.15867733955383 10.65536117553711 38.15867733955383 10.65536117553711 C 38.15867733955383 10.65536117553711 38.15818381309509 18.6361083984375 38.15818381309509 18.6361083984375 C 38.15135669708252 18.76256561279297 38.15777254104614 18.875080108642578 38.17693781852722 18.969436645507812 C 38.24372839927673 19.383827209472656 38.46244287490845 19.717479705810547 38.78084969520569 19.92078399658203 C 38.78084969520569 19.92078399658203 38.93737983703613 20.04561996459961 38.93737983703613 20.04561996459961 C 38.93737983703613 20.04561996459961 41.83701229095459 22.946678161621094 41.83701229095459 22.946678161621094 C 41.83701229095459 22.946678161621094 38.61387324333191 26.175228118896484 38.61387324333191 26.175228118896484 C 38.45150303840637 26.320491790771484 38.332069635391235 26.486507415771484 38.25935673713684 26.66873550415039 C 38.224974393844604 26.7501220703125 38.21132016181946 26.814647674560547 38.1952805519104 26.880146026611328 C 38.1952805519104 26.880146026611328 38.17693781852722 26.94532012939453 38.17693781852722 26.94532012939453 C 38.160486936569214 27.04421615600586 38.15226149559021 27.18915557861328 38.15777254104614 27.306533813476562 C 38.15777254104614 27.306533813476562 38.15637421607971 35.39849853515625 38.15637421607971 35.39849853515625 C 38.15637421607971 35.39849853515625 36.34875130653381 35.39849853515625 36.34875130653381 35.39849853515625 C 35.59982490539551 35.39849853515625 35.01326870918274 35.96236801147461 35.01326870918274 36.68317413330078 C 35.01285743713379 37.03498458862305 35.149646520614624 37.36344909667969 35.39854836463928 37.60858154296875 C 35.64835500717163 37.8553352355957 35.98411750793457 37.991519927978516 36.34324026107788 37.991844177246094 C 36.34324026107788 37.991844177246094 39.488648891448975 37.972713470458984 39.488648891448975 37.972713470458984 C 39.655214071273804 37.972713470458984 39.8203809261322 37.94061279296875 39.98003673553467 37.87705993652344 C 39.98003673553467 37.87705993652344 40.162065744400024 37.777191162109375 40.162065744400024 37.777191162109375 C 40.19044351577759 37.76292419433594 40.22021961212158 37.749629974365234 40.247199058532715 37.73276901245117 C 40.291122913360596 37.70196533203125 40.34508180618286 37.65203094482422 40.39953422546387 37.602420806884766 C 40.39953422546387 37.602420806884766 40.46130728721619 37.5485954284668 40.46130728721619 37.5485954284668 C 40.501118421554565 37.505794525146484 40.54553580284119 37.45132064819336 40.586251735687256 37.391658782958984 C 40.586251735687256 37.391658782958984 40.62005829811096 37.34366989135742 40.62005829811096 37.34366989135742 C 40.65073919296265 37.29049301147461 40.67771863937378 37.23472213745117 40.70428681373596 37.17830276489258 C 40.70428681373596 37.17830276489258 40.731677532196045 37.12480163574219 40.731677532196045 37.12480163574219 C 40.74821066856384 37.07940673828125 40.75734090805054 37.031742095947266 40.7691855430603 36.98472595214844 C 40.77880930900574 36.94614028930664 40.792134523391724 36.903987884521484 40.8071870803833 36.86151123046875 C 40.817715644836426 36.815467834472656 40.83145213127136 36.768775939941406 40.84559988975525 36.72111129760742 C 40.85111093521118 36.70878982543945 40.84790301322937 36.72694778442383 40.84609341621399 36.748023986816406 C 40.855717182159424 36.64912796020508 40.877185583114624 36.5657958984375 40.898736238479614 36.500946044921875 C 40.898736238479614 36.500946044921875 40.859829902648926 27.741676330566406 40.859829902648926 27.741676330566406 C 40.859829902648926 27.741676330566406 44.62329816818237 23.954120635986328 44.62329816818237 23.954120635986328 C 44.87631273269653 23.699909210205078 45.01079869270325 23.354583740234375 45.00298452377319 22.979751586914062 Z M 30.52661967277527 3.100353240966797 C 30.372721672058105 2.973896026611328 30.140435218811035 2.8218231201171875 29.914235591888428 2.8218231201171875 C 29.914235591888428 2.8218231201171875 29.81569480895996 2.81793212890625 29.81569480895996 2.81793212890625 C 29.81569480895996 2.81793212890625 21.250131845474243 1.9998512268066406 21.250131845474243 1.9998512268066406 C 21.230061769485474 2.003093719482422 21.206043481826782 2.0079574584960938 21.18210744857788 2.011524200439453 C 21.16121482849121 2.0150909423828125 21.14023995399475 2.0183334350585938 21.11934733390808 2.021251678466797 C 21.05658721923828 2.044921875 20.997693061828613 2.062755584716797 20.939292430877686 2.0747528076171875 C 20.88697862625122 2.0848045349121094 20.837790489196777 2.096477508544922 20.791563510894775 2.1117172241210938 C 20.768038749694824 2.1207962036132812 20.741881847381592 2.136035919189453 20.71531367301941 2.1493301391601562 C 20.71531367301941 2.1493301391601562 20.560510873794556 2.2232589721679688 20.560510873794556 2.2232589721679688 C 20.50696325302124 2.25244140625 20.452428579330444 2.296863555908203 20.39797616004944 2.340312957763672 C 20.39797616004944 2.340312957763672 20.33694338798523 2.3863563537597656 20.33694338798523 2.3863563537597656 C 20.305522203445435 2.415538787841797 20.259788751602173 2.4645004272460938 20.207063674926758 2.52740478515625 C 20.207063674926758 2.52740478515625 20.175642490386963 2.5643692016601562 20.175642490386963 2.5643692016601562 C 20.139944076538086 2.6146278381347656 20.10589075088501 2.6733169555664062 20.078911304473877 2.7213058471679688 C 20.078911304473877 2.7213058471679688 20.047490119934082 2.7751312255859375 20.047490119934082 2.7751312255859375 C 20.02355408668518 2.8302536010742188 20.009159564971924 2.8769454956054688 19.993448972702026 2.9223403930664062 C 19.984730005264282 2.947956085205078 19.973872423171997 2.975841522216797 19.96202778816223 3.004375457763672 C 19.96120524406433 3.014751434326172 19.958984375 3.0306396484375 19.95643448829651 3.04620361328125 C 19.95643448829651 3.04620361328125 19.944178581237793 3.1253204345703125 19.944178581237793 3.1253204345703125 C 19.93809175491333 3.1622848510742188 19.929784059524536 3.2028160095214844 19.921065092086792 3.243022918701172 C 19.921065092086792 3.243022918701172 16.98803734779358 36.763587951660156 16.98803734779358 36.763587951660156 C 16.933091402053833 37.142635345458984 17.03031611442566 37.50676727294922 17.26260256767273 37.787567138671875 C 17.26260256767273 37.787567138671875 21.11844253540039 42.46129608154297 21.11844253540039 42.46129608154297 C 21.133741855621338 42.48561477661133 21.147231578826904 42.51123046875 21.164669513702393 42.53425216674805 C 21.40962314605713 42.83158874511719 21.764057397842407 42.999874114990234 22.141029357910156 42.999874114990234 C 22.141029357910156 42.999874114990234 22.141029357910156 42.999874114990234 22.141029357910156 42.999874114990234 C 22.44265627861023 42.999874114990234 22.724706649780273 42.89546585083008 22.956170558929443 42.69637680053711 C 22.956170558929443 42.69637680053711 27.614484548568726 38.70097732543945 27.614484548568726 38.70097732543945 C 27.66243886947632 38.65947341918945 27.714259147644043 38.604026794433594 27.77315330505371 38.531070709228516 C 27.77315330505371 38.531070709228516 27.801942348480225 38.495079040527344 27.801942348480225 38.495079040527344 C 27.96274971961975 38.27296829223633 28.04557991027832 38.034969329833984 28.059069633483887 37.77946090698242 C 28.059069633483887 37.77946090698242 30.310455083847046 11.790557861328125 30.310455083847046 11.790557861328125 C 30.310455083847046 11.790557861328125 30.331347703933716 11.714359283447266 30.331347703933716 11.714359283447266 C 30.356599807739258 11.621623992919922 30.370171785354614 11.550613403320312 30.375353813171387 11.489654541015625 C 30.380206823349 11.43161392211914 30.37889075279236 11.365467071533203 30.370994329452515 11.277271270751953 C 30.370994329452515 11.277271270751953 30.36400270462036 11.197830200195312 30.36400270462036 11.197830200195312 C 30.36400270462036 11.197830200195312 30.99390697479248 4.216743469238281 30.99390697479248 4.216743469238281 C 31.030510187149048 3.7919769287109375 30.855719566345215 3.373046875 30.52661967277527 3.100353240966797 Z M 25.64120125770569 36.308990478515625 C 25.64120125770569 36.308990478515625 19.629061937332153 35.778194427490234 19.629061937332153 35.778194427490234 C 19.629061937332153 35.778194427490234 21.681227207183838 12.014289855957031 21.681227207183838 12.014289855957031 C 21.681227207183838 12.014289855957031 27.692050457000732 12.546382904052734 27.692050457000732 12.546382904052734 C 27.692050457000732 12.546382904052734 25.64120125770569 36.308990478515625 25.64120125770569 36.308990478515625 Z M 27.923103094100952 9.966331481933594 C 27.923103094100952 9.966331481933594 21.911786317825317 9.435535430908203 21.911786317825317 9.435535430908203 C 21.911786317825317 9.435535430908203 22.33547878265381 4.755645751953125 22.33547878265381 4.755645751953125 C 22.33547878265381 4.755645751953125 28.345479488372803 5.28741455078125 28.345479488372803 5.28741455078125 C 28.345479488372803 5.28741455078125 27.923103094100952 9.966331481933594 27.923103094100952 9.966331481933594 Z M 1.9970066547393799 22.979751586914062 C 1.9855732917785645 22.563739776611328 2.1246654987335205 22.213550567626953 2.389031171798706 21.948963165283203 C 2.389031171798706 21.948963165283203 6.1401612758636475 18.161407470703125 6.1401612758636475 18.161407470703125 C 6.1401612758636475 18.161407470703125 6.101337194442749 9.472824096679688 6.101337194442749 9.472824096679688 C 6.1232991218566895 9.407001495361328 6.143862724304199 9.324642181396484 6.152581691741943 9.228988647460938 C 6.154802560806274 9.203697204589844 6.160313606262207 9.175811767578125 6.16582465171814 9.147926330566406 C 6.184989929199219 9.101234436035156 6.200618267059326 9.055839538574219 6.213367700576782 9.010120391845703 C 6.2266929149627686 8.95888900756836 6.240347146987915 8.908954620361328 6.256880283355713 8.861289978027344 C 6.27242636680603 8.833080291748047 6.286574125289917 8.804222106933594 6.299405813217163 8.77536392211914 C 6.323670864105225 8.722511291503906 6.349251985549927 8.672252655029297 6.375820159912109 8.627506256103516 C 6.375820159912109 8.627506256103516 6.416947364807129 8.56784439086914 6.416947364807129 8.56784439086914 C 6.452645778656006 8.516937255859375 6.492950439453125 8.466354370117188 6.534571170806885 8.422256469726562 C 6.557931423187256 8.403450012207031 6.579893350601196 8.3846435546875 6.600868225097656 8.365188598632812 C 6.65079665184021 8.318496704101562 6.701136350631714 8.270183563232422 6.7592079639434814 8.231922149658203 C 6.791204929351807 8.210845947265625 6.824188947677612 8.196578979492188 6.855774641036987 8.181015014648438 C 6.855774641036987 8.181015014648438 6.912036657333374 8.15280532836914 6.912036657333374 8.15280532836914 C 6.941319227218628 8.137565612792969 6.9783337116241455 8.116813659667969 7.014525651931763 8.096061706542969 C 7.138483047485352 8.043209075927734 7.292627811431885 8.00948715209961 7.453270673751831 8.003002166748047 C 7.453270673751831 8.003002166748047 7.525983572006226 8.003974914550781 7.525983572006226 8.003974914550781 C 7.525983572006226 8.003974914550781 10.65354299545288 8.002029418945312 10.65354299545288 8.002029418945312 C 11.00945782661438 8.002029418945312 11.34480905532837 8.140159606933594 11.596425294876099 8.391128540039062 C 11.847630262374878 8.641124725341797 11.985817670822144 8.973804473876953 11.985324144363403 9.328208923339844 C 11.985324144363403 10.06036376953125 11.386018514633179 10.65536117553711 10.648936748504639 10.65536117553711 C 10.648936748504639 10.65536117553711 8.84131383895874 10.65536117553711 8.84131383895874 10.65536117553711 C 8.84131383895874 10.65536117553711 8.84180736541748 18.6361083984375 8.84180736541748 18.6361083984375 C 8.848634481430054 18.76256561279297 8.84221863746643 18.875080108642578 8.823053359985352 18.969436645507812 C 8.75626277923584 19.383827209472656 8.537548303604126 19.717479705810547 8.219141483306885 19.92078399658203 C 8.219141483306885 19.92078399658203 8.06261134147644 20.04561996459961 8.06261134147644 20.04561996459961 C 8.06261134147644 20.04561996459961 5.162978887557983 22.946678161621094 5.162978887557983 22.946678161621094 C 5.162978887557983 22.946678161621094 8.386117935180664 26.175228118896484 8.386117935180664 26.175228118896484 C 8.548488140106201 26.320491790771484 8.667921543121338 26.486507415771484 8.740716695785522 26.66873550415039 C 8.775016784667969 26.7501220703125 8.788753271102905 26.814647674560547 8.804710626602173 26.880146026611328 C 8.804710626602173 26.880146026611328 8.823053359985352 26.94532012939453 8.823053359985352 26.94532012939453 C 8.83950424194336 27.04421615600586 8.847729682922363 27.18915557861328 8.84221863746643 27.306533813476562 C 8.84221863746643 27.306533813476562 8.843616962432861 35.39849853515625 8.843616962432861 35.39849853515625 C 8.843616962432861 35.39849853515625 10.65123987197876 35.39849853515625 10.65123987197876 35.39849853515625 C 11.400166273117065 35.39849853515625 11.986722469329834 35.96236801147461 11.986722469329834 36.68317413330078 C 11.987133741378784 37.03498458862305 11.85034465789795 37.36344909667969 11.601525068283081 37.60858154296875 C 11.351718425750732 37.8553352355957 11.015873670578003 37.991519927978516 10.656750917434692 37.991844177246094 C 10.656750917434692 37.991844177246094 7.511342287063599 37.972713470458984 7.511342287063599 37.972713470458984 C 7.3447771072387695 37.972713470458984 7.179692506790161 37.94061279296875 7.019954442977905 37.87705993652344 C 7.019954442977905 37.87705993652344 6.837925434112549 37.777191162109375 6.837925434112549 37.777191162109375 C 6.809547662734985 37.76292419433594 6.779771566390991 37.749629974365234 6.752792119979858 37.73276901245117 C 6.7088682651519775 37.70196533203125 6.654909372329712 37.65203094482422 6.600456953048706 37.602420806884766 C 6.600456953048706 37.602420806884766 6.538683891296387 37.5485954284668 6.538683891296387 37.5485954284668 C 6.498872756958008 37.505794525146484 6.454537630081177 37.45132064819336 6.413821697235107 37.391658782958984 C 6.413821697235107 37.391658782958984 6.379932880401611 37.34366989135742 6.379932880401611 37.34366989135742 C 6.349251985549927 37.29049301147461 6.322272539138794 37.23472213745117 6.295704364776611 37.17830276489258 C 6.295704364776611 37.17830276489258 6.268313646316528 37.12480163574219 6.268313646316528 37.12480163574219 C 6.2518627643585205 37.07940673828125 6.242650270462036 37.031742095947266 6.2308056354522705 36.98472595214844 C 6.221181869506836 36.94614028930664 6.20793890953064 36.903987884521484 6.1928040981292725 36.86151123046875 C 6.1822755336761475 36.815467834472656 6.168539047241211 36.768775939941406 6.154391288757324 36.72111129760742 C 6.148880243301392 36.70878982543945 6.152088165283203 36.72694778442383 6.153897762298584 36.748023986816406 C 6.144273996353149 36.64912796020508 6.122805595397949 36.5657958984375 6.101337194442749 36.500946044921875 C 6.101337194442749 36.500946044921875 6.1401612758636475 27.741676330566406 6.1401612758636475 27.741676330566406 C 6.1401612758636475 27.741676330566406 2.3766930103302 23.954120635986328 2.3766930103302 23.954120635986328 C 2.12367844581604 23.699909210205078 1.9891924858093262 23.354583740234375 1.9970066547393799 22.979751586914062 Z"/></g></svg>